<svg width="24" height="24" viewBox="0 0 24 24" fill="none" xmlns="http://www.w3.org/2000/svg">
<path d="M23.8475 11.5332C23.6331 11.2399 18.5245 4.35168 11.9999 4.35168C5.47529 4.35168 0.366469 11.2399 0.152297 11.5329C-0.0507657 11.8112 -0.0507657 12.1886 0.152297 12.4668C0.366469 12.7601 5.47529 19.6484 11.9999 19.6484C18.5245 19.6484 23.6331 12.7601 23.8475 12.4671C24.0508 12.1889 24.0508 11.8112 23.8475 11.5332ZM11.9999 18.066C7.19383 18.066 3.03127 13.4941 1.79907 11.9995C3.02968 10.5036 7.18351 5.93409 11.9999 5.93409C16.8057 5.93409 20.968 10.5052 22.2007 12.0006C20.9701 13.4965 16.8163 18.066 11.9999 18.066Z" fill="black"/>
<path d="M11.9992 7.25278C9.38163 7.25278 7.25195 9.38245 7.25195 12.0001C7.25195 14.6177 9.38163 16.7473 11.9992 16.7473C14.6168 16.7473 16.7465 14.6177 16.7465 12.0001C16.7465 9.38245 14.6168 7.25278 11.9992 7.25278ZM11.9992 15.1649C10.2541 15.1649 8.83441 13.7452 8.83441 12.0001C8.83441 10.2549 10.2541 8.83523 11.9992 8.83523C13.7443 8.83523 15.164 10.2549 15.164 12.0001C15.164 13.7452 13.7444 15.1649 11.9992 15.1649Z" fill="black"/>
</svg>
