<svg width="187" height="45" viewBox="0 0 187 45" fill="none" xmlns="http://www.w3.org/2000/svg">
<circle cx="22.5" cy="22.5" r="22.5" fill="#FFDE40"/>
<path d="M23.2747 30.354C23.3402 30.5341 23.373 30.6814 23.373 30.796C23.3811 30.9024 23.3525 30.9843 23.287 31.0416C23.2215 31.0989 23.111 31.1357 22.9555 31.1521C22.8081 31.1685 22.6076 31.1767 22.3538 31.1767C22.1001 31.1767 21.8954 31.1685 21.7399 31.1521C21.5925 31.1439 21.4779 31.1275 21.3961 31.103C21.3224 31.0702 21.2651 31.0293 21.2242 30.9802C21.1914 30.9311 21.1587 30.8697 21.1259 30.796L19.763 26.9282H13.157L11.8554 30.7469C11.8309 30.8206 11.7981 30.8861 11.7572 30.9434C11.7163 30.9925 11.6549 31.0375 11.573 31.0784C11.4993 31.1112 11.3888 31.1357 11.2415 31.1521C11.1023 31.1685 10.9181 31.1767 10.6889 31.1767C10.4515 31.1767 10.2551 31.1644 10.0995 31.1398C9.95219 31.1235 9.84577 31.0866 9.78029 31.0293C9.72299 30.972 9.69434 30.8902 9.69434 30.7837C9.70252 30.6691 9.73936 30.5218 9.80485 30.3417L15.1339 15.5825C15.1666 15.4925 15.2075 15.4188 15.2566 15.3615C15.314 15.3042 15.3917 15.2592 15.4899 15.2265C15.5964 15.1937 15.7273 15.1732 15.8829 15.1651C16.0466 15.1487 16.2512 15.1405 16.4968 15.1405C16.7588 15.1405 16.9757 15.1487 17.1476 15.1651C17.3195 15.1732 17.4587 15.1937 17.5651 15.2265C17.6715 15.2592 17.7533 15.3083 17.8106 15.3738C17.8679 15.4311 17.913 15.5048 17.9457 15.5948L23.2747 30.354ZM16.4354 17.3261H16.4231L13.685 25.246H19.2104L16.4354 17.3261Z" fill="black"/>
<path d="M35.4062 16.1228C35.4062 16.2702 35.398 16.4052 35.3817 16.528C35.3735 16.6426 35.3571 16.7572 35.3325 16.8718C35.3162 16.9782 35.2875 17.0847 35.2466 17.1911C35.2139 17.2893 35.1729 17.3957 35.1238 17.5103L29.4019 30.6978C29.3609 30.796 29.3077 30.8779 29.2422 30.9434C29.1849 31.0007 29.1072 31.0498 29.0089 31.0907C28.9189 31.1235 28.8002 31.1439 28.6529 31.1521C28.5055 31.1685 28.3254 31.1767 28.1126 31.1767C27.8343 31.1767 27.6173 31.1644 27.4618 31.1398C27.3063 31.1153 27.1917 31.0784 27.118 31.0293C27.0525 30.972 27.0239 30.9065 27.0321 30.8329C27.0402 30.751 27.0689 30.6569 27.118 30.5504L33.1346 17.0683H25.5095C25.3539 17.0683 25.2353 16.9864 25.1534 16.8227C25.0797 16.659 25.0429 16.4298 25.0429 16.1351C25.0429 15.9796 25.0511 15.8445 25.0674 15.7299C25.092 15.6153 25.1247 15.5211 25.1657 15.4475C25.2066 15.3656 25.2557 15.3083 25.313 15.2756C25.3703 15.2346 25.4358 15.2142 25.5095 15.2142H34.7677C34.8823 15.2142 34.9806 15.2265 35.0624 15.251C35.1525 15.2756 35.2179 15.3247 35.2589 15.3984C35.308 15.472 35.3448 15.5662 35.3694 15.6808C35.3939 15.7954 35.4062 15.9427 35.4062 16.1228Z" fill="black"/>
<path d="M67.6352 30.7837C67.6352 30.8492 67.6229 30.9065 67.5984 30.9556C67.5738 31.0047 67.5206 31.0456 67.4387 31.0784C67.3569 31.1111 67.2423 31.1357 67.0949 31.1521C66.9476 31.1684 66.7511 31.1766 66.5056 31.1766C66.2927 31.1766 66.1167 31.1684 65.9776 31.1521C65.8466 31.1357 65.7402 31.1111 65.6583 31.0784C65.5765 31.0375 65.511 30.9843 65.4619 30.9188C65.4209 30.8533 65.3841 30.7714 65.3513 30.6732L63.8902 26.9281C63.7183 26.5025 63.5382 26.1136 63.3499 25.7617C63.1698 25.4015 62.9529 25.0945 62.6991 24.8407C62.4454 24.5788 62.1466 24.3782 61.8028 24.2391C61.459 24.0917 61.0456 24.0181 60.5626 24.0181H59.1505V30.7837C59.1505 30.8492 59.1301 30.9065 59.0891 30.9556C59.0564 31.0047 58.9991 31.0456 58.9172 31.0784C58.8436 31.1029 58.7371 31.1234 58.598 31.1398C58.467 31.1643 58.2992 31.1766 58.0946 31.1766C57.8899 31.1766 57.718 31.1643 57.5788 31.1398C57.4479 31.1234 57.3415 31.1029 57.2596 31.0784C57.1777 31.0456 57.1204 31.0047 57.0877 30.9556C57.0549 30.9065 57.0386 30.8492 57.0386 30.7837V16.0737C57.0386 15.7544 57.1204 15.5334 57.2842 15.4106C57.4561 15.2796 57.6361 15.2141 57.8244 15.2141H61.2011C61.6022 15.2141 61.9337 15.2264 62.1957 15.251C62.4658 15.2673 62.7073 15.2878 62.9201 15.3124C63.5341 15.4188 64.0743 15.5866 64.5409 15.8158C65.0157 16.045 65.4127 16.3356 65.732 16.6876C66.0512 17.0396 66.2886 17.4448 66.4442 17.9032C66.6079 18.3534 66.6897 18.8528 66.6897 19.4012C66.6897 19.9333 66.6161 20.4122 66.4687 20.8378C66.3296 21.2553 66.1249 21.6278 65.8548 21.9552C65.5846 22.2745 65.2613 22.5528 64.8848 22.7902C64.5082 23.0276 64.0866 23.2281 63.62 23.3918C63.882 23.5064 64.1194 23.6538 64.3322 23.8339C64.545 24.0058 64.7415 24.2145 64.9216 24.4601C65.1099 24.7057 65.2859 24.9881 65.4496 25.3073C65.6133 25.6266 65.777 25.9868 65.9407 26.3879L67.3651 29.8873C67.4797 30.182 67.5534 30.3908 67.5861 30.5136C67.6188 30.6282 67.6352 30.7182 67.6352 30.7837ZM64.455 19.6222C64.455 19.0001 64.3158 18.4762 64.0375 18.0505C63.7592 17.6167 63.2926 17.3056 62.6377 17.1174C62.4331 17.0601 62.1998 17.0191 61.9378 16.9946C61.6841 16.97 61.3484 16.9577 60.931 16.9577H59.1505V22.3113H61.2134C61.77 22.3113 62.2489 22.2458 62.65 22.1148C63.0593 21.9757 63.399 21.7874 63.6691 21.55C63.9393 21.3044 64.1357 21.0179 64.2585 20.6905C64.3895 20.3631 64.455 20.007 64.455 19.6222Z" fill="black"/>
<path d="M79.5334 30.2311C79.5334 30.3785 79.5252 30.5095 79.5088 30.6241C79.4925 30.7305 79.4638 30.8205 79.4229 30.8942C79.382 30.9679 79.3328 31.0211 79.2755 31.0538C79.2264 31.0866 79.1691 31.1029 79.1036 31.1029H71.4785C71.2902 31.1029 71.1101 31.0416 70.9382 30.9188C70.7745 30.7878 70.6926 30.5627 70.6926 30.2434V16.0737C70.6926 15.7544 70.7745 15.5334 70.9382 15.4106C71.1101 15.2796 71.2902 15.2141 71.4785 15.2141H79.0177C79.0832 15.2141 79.1405 15.2305 79.1896 15.2632C79.2469 15.296 79.2919 15.3492 79.3247 15.4229C79.3574 15.4965 79.382 15.5907 79.3983 15.7053C79.4229 15.8117 79.4352 15.9468 79.4352 16.1105C79.4352 16.2578 79.4229 16.3888 79.3983 16.5034C79.382 16.6098 79.3574 16.6999 79.3247 16.7735C79.2919 16.839 79.2469 16.8881 79.1896 16.9209C79.1405 16.9536 79.0832 16.97 79.0177 16.97H72.8046V21.9552H78.1336C78.1991 21.9552 78.2564 21.9757 78.3055 22.0166C78.3628 22.0494 78.4078 22.0985 78.4406 22.164C78.4815 22.2294 78.5102 22.3195 78.5265 22.4341C78.5429 22.5487 78.5511 22.6838 78.5511 22.8393C78.5511 22.9866 78.5429 23.1135 78.5265 23.2199C78.5102 23.3264 78.4815 23.4123 78.4406 23.4778C78.4078 23.5433 78.3628 23.5924 78.3055 23.6251C78.2564 23.6497 78.1991 23.662 78.1336 23.662H72.8046V29.3471H79.1036C79.1691 29.3471 79.2264 29.3634 79.2755 29.3962C79.3328 29.4289 79.382 29.4821 79.4229 29.5558C79.4638 29.6213 79.4925 29.7113 79.5088 29.8259C79.5252 29.9324 79.5334 30.0674 79.5334 30.2311Z" fill="black"/>
<path d="M89.3933 30.7346C89.3606 30.8246 89.3155 30.8983 89.2582 30.9556C89.2009 31.0129 89.1191 31.0579 89.0127 31.0907C88.9144 31.1234 88.7835 31.1439 88.6197 31.1521C88.4642 31.1684 88.2677 31.1766 88.0304 31.1766C87.8503 31.1766 87.6906 31.1725 87.5515 31.1643C87.4205 31.1643 87.3059 31.1562 87.2077 31.1398C87.1094 31.1234 87.0235 31.107 86.9498 31.0907C86.8843 31.0661 86.827 31.0375 86.7779 31.0047C86.7288 30.972 86.6879 30.9351 86.6551 30.8942C86.6306 30.8451 86.606 30.7878 86.5815 30.7223L81.3875 15.9631C81.322 15.7831 81.2852 15.6398 81.277 15.5334C81.277 15.4188 81.3138 15.3328 81.3875 15.2755C81.4612 15.2182 81.5799 15.1814 81.7436 15.165C81.9073 15.1486 82.1283 15.1405 82.4067 15.1405C82.6359 15.1405 82.8159 15.1486 82.9469 15.165C83.0861 15.1732 83.1925 15.1937 83.2662 15.2264C83.3398 15.2592 83.3931 15.3042 83.4258 15.3615C83.4667 15.4106 83.5036 15.4761 83.5363 15.5579L88.0918 28.9296H88.104L92.5367 15.5825C92.5612 15.4925 92.5899 15.4188 92.6226 15.3615C92.6554 15.3042 92.7127 15.2592 92.7945 15.2264C92.8764 15.1937 92.991 15.1732 93.1384 15.165C93.2857 15.1486 93.4822 15.1405 93.7277 15.1405C93.9815 15.1405 94.1821 15.1527 94.3294 15.1773C94.4767 15.1937 94.575 15.2305 94.6241 15.2878C94.6814 15.3451 94.7019 15.4311 94.6855 15.5457C94.6773 15.6521 94.6405 15.7953 94.575 15.9754L89.3933 30.7346Z" fill="black"/>
<path d="M110.206 22.9744C110.206 24.2595 110.055 25.4178 109.752 26.4493C109.449 27.4807 108.994 28.3607 108.389 29.0892C107.791 29.8096 107.038 30.3662 106.129 30.7591C105.221 31.1439 104.161 31.3362 102.949 31.3362C101.754 31.3362 100.718 31.1602 99.8426 30.8083C98.9749 30.4481 98.2545 29.9283 97.6815 29.2488C97.1167 28.5694 96.6951 27.7263 96.4168 26.7194C96.1385 25.7125 95.9993 24.5542 95.9993 23.2445C95.9993 21.9921 96.1508 20.8542 96.4536 19.831C96.7565 18.8077 97.2108 17.94 97.8166 17.2279C98.4223 16.5075 99.1795 15.955 100.088 15.5702C100.997 15.1773 102.057 14.9808 103.268 14.9808C104.439 14.9808 105.458 15.1568 106.326 15.5088C107.194 15.8608 107.914 16.3765 108.487 17.056C109.068 17.7272 109.498 18.5622 109.776 19.5608C110.063 20.5513 110.206 21.6892 110.206 22.9744ZM107.983 23.1217C107.983 22.2213 107.902 21.3863 107.738 20.6168C107.582 19.8392 107.316 19.1679 106.94 18.6031C106.571 18.0301 106.076 17.5839 105.454 17.2647C104.832 16.9454 104.062 16.7858 103.146 16.7858C102.229 16.7858 101.459 16.9577 100.837 17.3015C100.215 17.6453 99.7075 18.1038 99.3146 18.6768C98.9299 19.2498 98.6516 19.921 98.4796 20.6905C98.3159 21.4518 98.2341 22.254 98.2341 23.0971C98.2341 24.0303 98.3118 24.8899 98.4674 25.6757C98.6229 26.4615 98.8848 27.141 99.2532 27.714C99.6216 28.2788 100.113 28.7209 100.727 29.0401C101.349 29.3512 102.126 29.5067 103.06 29.5067C103.985 29.5067 104.762 29.3348 105.393 28.991C106.023 28.6472 106.53 28.1847 106.915 27.6035C107.3 27.0141 107.574 26.3347 107.738 25.5652C107.902 24.7957 107.983 23.9812 107.983 23.1217Z" fill="black"/>
<path d="M121.785 30.182C121.785 30.3458 121.777 30.4849 121.76 30.5995C121.744 30.7059 121.715 30.8001 121.674 30.8819C121.642 30.9556 121.597 31.0129 121.539 31.0538C121.49 31.0866 121.429 31.1029 121.355 31.1029H114.332C114.143 31.1029 113.963 31.0416 113.791 30.9188C113.628 30.7878 113.546 30.5627 113.546 30.2434V15.5334C113.546 15.4679 113.562 15.4106 113.595 15.3615C113.628 15.3124 113.685 15.2755 113.767 15.251C113.849 15.2182 113.959 15.1937 114.098 15.1773C114.237 15.1527 114.405 15.1405 114.602 15.1405C114.806 15.1405 114.974 15.1527 115.105 15.1773C115.244 15.1937 115.355 15.2182 115.437 15.251C115.519 15.2755 115.576 15.3124 115.609 15.3615C115.641 15.4106 115.658 15.4679 115.658 15.5334V29.2734H121.355C121.429 29.2734 121.49 29.2939 121.539 29.3348C121.597 29.3675 121.642 29.4207 121.674 29.4944C121.715 29.5599 121.744 29.65 121.76 29.7646C121.777 29.8792 121.785 30.0183 121.785 30.182Z" fill="black"/>
<path d="M135.537 25.2337C135.537 26.1996 135.394 27.0632 135.107 27.8245C134.829 28.5776 134.428 29.2161 133.904 29.74C133.38 30.2639 132.742 30.6609 131.989 30.931C131.235 31.2012 130.38 31.3362 129.422 31.3362C128.546 31.3362 127.748 31.2094 127.028 30.9556C126.308 30.7018 125.69 30.3294 125.174 29.8382C124.658 29.3389 124.261 28.7168 123.983 27.9718C123.704 27.2269 123.565 26.3674 123.565 25.3933V15.5334C123.565 15.4679 123.582 15.4106 123.614 15.3615C123.647 15.3124 123.704 15.2755 123.786 15.251C123.868 15.2182 123.975 15.1937 124.106 15.1773C124.237 15.1527 124.408 15.1405 124.621 15.1405C124.818 15.1405 124.986 15.1527 125.125 15.1773C125.264 15.1937 125.37 15.2182 125.444 15.251C125.526 15.2755 125.583 15.3124 125.616 15.3615C125.649 15.4106 125.665 15.4679 125.665 15.5334V25.1354C125.665 25.8722 125.755 26.5148 125.935 27.0632C126.115 27.6117 126.373 28.0701 126.709 28.4384C127.053 28.7986 127.462 29.0728 127.937 29.2611C128.42 29.4412 128.96 29.5313 129.557 29.5313C130.171 29.5313 130.716 29.4412 131.19 29.2611C131.673 29.081 132.079 28.8109 132.406 28.4507C132.742 28.0905 132.995 27.6444 133.167 27.1123C133.347 26.5802 133.438 25.9581 133.438 25.2459V15.5334C133.438 15.4679 133.454 15.4106 133.487 15.3615C133.519 15.3124 133.577 15.2755 133.659 15.251C133.74 15.2182 133.847 15.1937 133.978 15.1773C134.117 15.1527 134.289 15.1405 134.493 15.1405C134.69 15.1405 134.854 15.1527 134.985 15.1773C135.124 15.1937 135.23 15.2182 135.304 15.251C135.386 15.2755 135.443 15.3124 135.476 15.3615C135.517 15.4106 135.537 15.4679 135.537 15.5334V25.2337Z" fill="black"/>
<path d="M149.682 16.1228C149.682 16.2783 149.674 16.4134 149.658 16.528C149.641 16.6426 149.613 16.7367 149.572 16.8104C149.539 16.8759 149.494 16.925 149.437 16.9577C149.388 16.9905 149.33 17.0068 149.265 17.0068H144.795V30.7837C144.795 30.8492 144.779 30.9065 144.746 30.9556C144.714 31.0047 144.656 31.0456 144.574 31.0784C144.493 31.1029 144.382 31.1234 144.243 31.1398C144.112 31.1643 143.944 31.1766 143.739 31.1766C143.543 31.1766 143.375 31.1643 143.236 31.1398C143.097 31.1234 142.986 31.1029 142.904 31.0784C142.823 31.0456 142.765 31.0047 142.733 30.9556C142.7 30.9065 142.683 30.8492 142.683 30.7837V17.0068H138.214C138.148 17.0068 138.087 16.9905 138.03 16.9577C137.981 16.925 137.94 16.8759 137.907 16.8104C137.874 16.7367 137.846 16.6426 137.821 16.528C137.805 16.4134 137.796 16.2783 137.796 16.1228C137.796 15.9672 137.805 15.8322 137.821 15.7176C137.846 15.5948 137.874 15.4965 137.907 15.4229C137.94 15.3492 137.981 15.296 138.03 15.2632C138.087 15.2305 138.148 15.2141 138.214 15.2141H149.265C149.33 15.2141 149.388 15.2305 149.437 15.2632C149.494 15.296 149.539 15.3492 149.572 15.4229C149.613 15.4965 149.641 15.5948 149.658 15.7176C149.674 15.8322 149.682 15.9672 149.682 16.1228Z" fill="black"/>
<path d="M154.09 30.7837C154.09 30.8492 154.074 30.9065 154.041 30.9556C154.009 31.0047 153.951 31.0456 153.869 31.0784C153.788 31.1029 153.677 31.1234 153.538 31.1398C153.407 31.1643 153.239 31.1766 153.035 31.1766C152.838 31.1766 152.67 31.1643 152.531 31.1398C152.392 31.1234 152.281 31.1029 152.2 31.0784C152.118 31.0456 152.06 31.0047 152.028 30.9556C151.995 30.9065 151.979 30.8492 151.979 30.7837V15.5334C151.979 15.4679 151.995 15.4106 152.028 15.3615C152.069 15.3124 152.13 15.2755 152.212 15.251C152.302 15.2182 152.412 15.1937 152.543 15.1773C152.683 15.1527 152.846 15.1405 153.035 15.1405C153.239 15.1405 153.407 15.1527 153.538 15.1773C153.677 15.1937 153.788 15.2182 153.869 15.251C153.951 15.2755 154.009 15.3124 154.041 15.3615C154.074 15.4106 154.09 15.4679 154.09 15.5334V30.7837Z" fill="black"/>
<path d="M171.625 22.9744C171.625 24.2595 171.473 25.4178 171.17 26.4493C170.867 27.4807 170.413 28.3607 169.807 29.0892C169.21 29.8096 168.457 30.3662 167.548 30.7591C166.639 31.1439 165.579 31.3362 164.368 31.3362C163.173 31.3362 162.137 31.1602 161.261 30.8083C160.394 30.4481 159.673 29.9283 159.1 29.2488C158.535 28.5694 158.114 27.7263 157.836 26.7194C157.557 25.7125 157.418 24.5542 157.418 23.2445C157.418 21.9921 157.57 20.8542 157.872 19.831C158.175 18.8077 158.63 17.94 159.235 17.2279C159.841 16.5075 160.598 15.955 161.507 15.5702C162.416 15.1773 163.476 14.9808 164.687 14.9808C165.858 14.9808 166.877 15.1568 167.745 15.5088C168.612 15.8608 169.333 16.3765 169.906 17.056C170.487 17.7272 170.917 18.5622 171.195 19.5608C171.481 20.5513 171.625 21.6892 171.625 22.9744ZM169.402 23.1217C169.402 22.2213 169.32 21.3863 169.157 20.6168C169.001 19.8392 168.735 19.1679 168.359 18.6031C167.99 18.0301 167.495 17.5839 166.873 17.2647C166.251 16.9454 165.481 16.7858 164.564 16.7858C163.648 16.7858 162.878 16.9577 162.256 17.3015C161.634 17.6453 161.126 18.1038 160.733 18.6768C160.349 19.2498 160.07 19.921 159.898 20.6905C159.735 21.4518 159.653 22.254 159.653 23.0971C159.653 24.0303 159.731 24.8899 159.886 25.6757C160.042 26.4615 160.304 27.141 160.672 27.714C161.04 28.2788 161.531 28.7209 162.145 29.0401C162.768 29.3512 163.545 29.5067 164.478 29.5067C165.403 29.5067 166.181 29.3348 166.811 28.991C167.442 28.6472 167.949 28.1847 168.334 27.6035C168.719 27.0141 168.993 26.3347 169.157 25.5652C169.32 24.7957 169.402 23.9812 169.402 23.1217Z" fill="black"/>
<path d="M186.973 30.2311C186.973 30.3949 186.945 30.534 186.887 30.6486C186.838 30.7632 186.769 30.8574 186.679 30.931C186.597 31.0047 186.503 31.0579 186.396 31.0907C186.29 31.1234 186.183 31.1398 186.077 31.1398H185.402C185.189 31.1398 185 31.1193 184.837 31.0784C184.681 31.0293 184.53 30.9474 184.382 30.8328C184.243 30.71 184.1 30.5463 183.953 30.3417C183.813 30.137 183.658 29.8751 183.486 29.5558L178.476 20.5186C178.214 20.052 177.948 19.5649 177.678 19.0574C177.416 18.5417 177.171 18.0424 176.941 17.5594H176.917C176.933 18.1488 176.946 18.7504 176.954 19.3644C176.962 19.9783 176.966 20.5882 176.966 21.1939V30.7837C176.966 30.841 176.95 30.8983 176.917 30.9556C176.884 31.0047 176.827 31.0456 176.745 31.0784C176.671 31.1029 176.569 31.1234 176.438 31.1398C176.315 31.1643 176.156 31.1766 175.959 31.1766C175.763 31.1766 175.599 31.1643 175.468 31.1398C175.345 31.1234 175.247 31.1029 175.173 31.0784C175.1 31.0456 175.046 31.0047 175.014 30.9556C174.981 30.8983 174.965 30.841 174.965 30.7837V16.1228C174.965 15.7953 175.055 15.562 175.235 15.4229C175.415 15.2837 175.611 15.2141 175.824 15.2141H176.831C177.068 15.2141 177.265 15.2346 177.42 15.2755C177.584 15.3165 177.727 15.386 177.85 15.4843C177.981 15.5743 178.104 15.7053 178.218 15.8772C178.341 16.0409 178.472 16.2496 178.611 16.5034L182.467 23.4778C182.704 23.9035 182.933 24.3209 183.155 24.7302C183.376 25.1313 183.588 25.5284 183.793 25.9213C183.998 26.3142 184.198 26.703 184.395 27.0878C184.599 27.4643 184.8 27.845 184.996 28.2297H185.009C184.992 27.583 184.98 26.9118 184.972 26.216C184.972 25.512 184.972 24.8366 184.972 24.19V15.5702C184.972 15.5129 184.988 15.4597 185.021 15.4106C185.054 15.3615 185.107 15.3205 185.181 15.2878C185.262 15.2469 185.365 15.2182 185.487 15.2019C185.618 15.1855 185.786 15.1773 185.991 15.1773C186.171 15.1773 186.327 15.1855 186.458 15.2019C186.588 15.2182 186.691 15.2469 186.764 15.2878C186.838 15.3205 186.891 15.3615 186.924 15.4106C186.957 15.4597 186.973 15.5129 186.973 15.5702V30.2311Z" fill="black"/>
</svg>
