<svg width="64" height="64" viewBox="0 0 64 64" fill="none" xmlns="http://www.w3.org/2000/svg">
<g opacity="0.5">
<path d="M62.6814 16.6368C61.9436 13.8951 59.782 11.734 57.0408 10.9957C52.0325 9.62509 31.9994 9.62509 31.9994 9.62509C31.9994 9.62509 11.9667 9.62509 6.95847 10.9434C4.27 11.6812 2.05566 13.8956 1.31787 16.6368C0 21.6446 0 32.0303 0 32.0303C0 32.0303 0 42.4682 1.31787 47.4237C2.05614 50.1649 4.21727 52.3265 6.95895 53.0648C12.0195 54.4354 31.9999 54.4354 31.9999 54.4354C31.9999 54.4354 52.0325 54.4354 57.0408 53.1171C59.7825 52.3793 61.9436 50.2177 62.6819 47.4765C63.9997 42.4682 63.9997 32.083 63.9997 32.083C63.9997 32.083 64.0525 21.6446 62.6814 16.6368Z" fill="black"/>
<path d="M25.6211 41.6251L42.2798 32.0303L25.6211 22.4356V41.6251Z" fill="white"/>
</g>
</svg>
